<?xml version="1.0" encoding="UTF-8" standalone="no"?>
<!-- Generator: Adobe Illustrator 15.0.2, SVG Export Plug-In . SVG Version: 6.00 Build 0)  -->

<svg
   xmlns:dc="http://purl.org/dc/elements/1.1/"
   xmlns:cc="http://creativecommons.org/ns#"
   xmlns:rdf="http://www.w3.org/1999/02/22-rdf-syntax-ns#"
   xmlns:svg="http://www.w3.org/2000/svg"
   xmlns="http://www.w3.org/2000/svg"
   xmlns:sodipodi="http://sodipodi.sourceforge.net/DTD/sodipodi-0.dtd"
   xmlns:inkscape="http://www.inkscape.org/namespaces/inkscape"
   version="1.1"
   id="Ebene_1"
   x="0px"
   y="0px"
   width="345"
   height="345"
   viewBox="0 0 344.99999 344.99998"
   enable-background="new 0 0 841.89 595.275"
   xml:space="preserve"
   inkscape:version="0.48.4 r9939"
   sodipodi:docname="icon.svg"
   inkscape:export-filename="icon.png"
   inkscape:export-xdpi="66.779999"
   inkscape:export-ydpi="66.779999"><metadata
     id="metadata35"><rdf:RDF><cc:Work
         rdf:about=""><dc:format>image/svg+xml</dc:format><dc:type
           rdf:resource="http://purl.org/dc/dcmitype/StillImage" /><dc:title></dc:title></cc:Work></rdf:RDF></metadata><defs
     id="defs33" /><sodipodi:namedview
     pagecolor="#000000"
     bordercolor="#808080"
     borderopacity="1"
     objecttolerance="10"
     gridtolerance="10"
     guidetolerance="10"
     inkscape:pageopacity="1"
     inkscape:pageshadow="2"
     inkscape:window-width="1855"
     inkscape:window-height="1056"
     id="namedview31"
     showgrid="false"
     fit-margin-top="0"
     fit-margin-left="0"
     fit-margin-right="0"
     fit-margin-bottom="0"
     inkscape:zoom="2.8284272"
     inkscape:cx="149.63113"
     inkscape:cy="148.77604"
     inkscape:window-x="65"
     inkscape:window-y="24"
     inkscape:window-maximized="1"
     inkscape:current-layer="Ebene_1"
     inkscape:snap-page="true"
     inkscape:snap-global="false"
     showborder="false" /><path
     style="fill:none;stroke:#6d7a8e;stroke-width:29.99999913;stroke-miterlimit:4;stroke-opacity:1;stroke-dasharray:none"
     d="m 33.252641,201.13186 c 5.060643,-10.04499 23.716155,-22.53272 54.767034,-35.08229 62.101755,-25.09914 150.268305,-40.9411 196.925495,-35.38399 23.3286,2.77855 31.86283,10.38078 26.80218,20.42576 -5.06064,10.04498 -23.71615,22.53271 -54.76703,35.08228 -62.10176,25.09914 -150.26831,40.9411 -196.925501,35.38399 -23.328596,-2.77855 -31.862821,-10.38078 -26.802178,-20.42575"
     id="path4445"
     inkscape:connector-curvature="0"
     sodipodi:nodetypes="csssssc" /><path
     sodipodi:type="arc"
     style="fill:#ffffff;fill-opacity:1;stroke:none"
     id="path4495"
     sodipodi:cx="94.25"
     sodipodi:cy="94.627121"
     sodipodi:rx="93.75"
     sodipodi:ry="93.75"
     d="m 188,94.627121 a 93.75,93.75 0 1 1 -187.5,0 93.75,93.75 0 1 1 187.5,0 z"
     transform="matrix(0.99199999,0,0,0.99199999,78.960758,78.629893)" /><path
     clip-rule="evenodd"
     d="m 250.89026,223.84834 c -3.41615,3.43141 -7.0672,3.42234 -10.4974,-0.0242 -9.78565,-9.83065 -35.74521,-35.91125 -45.52585,-45.74392 -3.33282,-3.34877 -3.33081,-7.00692 0.01,-10.36275 9.83685,-9.89112 36.23851,-36.41169 46.07938,-46.29576 3.20132,-3.21676 6.96379,-3.21877 10.16511,-0.004 10.09312,17.25853 14.96264,30.3934 15.08783,50.20182 0.12519,19.80843 -6.45774,40.89929 -15.31907,52.22881 z"
     id="path17"
     inkscape:connector-curvature="0"
     style="fill:#aaa5ac;fill-rule:evenodd;fill-opacity:1"
     sodipodi:nodetypes="cccccczc" /><path
     clip-rule="evenodd"
     d="m 162.56607,265.55568 c -7.90878,-0.79962 -30.75068,-4.96381 -40.23116,-14.49214 -3.39205,-3.41024 -3.39506,-7.04723 -0.011,-10.44942 9.81076,-9.85685 36.28362,-36.46527 46.09839,-46.32112 3.26255,-3.27621 7.00094,-3.28931 10.24542,-0.0292 9.81276,9.85484 35.73289,35.90542 45.54264,45.7653 3.36997,3.38808 3.379,7.09964 0.0241,10.46957 -9.56279,9.61198 -35.17184,14.8842 -42.49064,15.12312 -7.81234,0.74688 -15.12152,0.33189 -19.17771,-0.0661 z"
     id="path19"
     inkscape:connector-curvature="0"
     style="fill:#aaa5ac;fill-rule:evenodd;fill-opacity:1"
     sodipodi:nodetypes="cccsccccc" /><path
     clip-rule="evenodd"
     d="m 137.76428,149.29067 c 0,-10.96136 -0.2379,-45.37698 -0.39828,-56.335332 -0.0464,-3.171388 0.46365,-5.9701 3.12202,-7.741577 3.37475,-2.248863 15.92021,-5.301102 26.71202,-5.997751 4.81739,-0.30357 8.02816,-0.510983 16.9801,0.47031 8.95194,0.981294 29.43899,5.6697 39.22464,15.499349 3.36194,3.379005 3.35893,7.091571 -0.002,10.469571 -11.57152,11.63253 -38.90064,39.09348 -50.47517,50.72197 -10.22134,10.27306 -20.44066,20.54411 -30.663,30.81313 -1.89429,1.90365 -3.57274,1.45923 -4.26039,-1.17807 -0.21182,-0.81628 -0.22988,-1.69806 -0.22988,-2.55163 -0.014,-11.38864 -0.01,-22.78031 -0.01,-34.16996"
     id="path21"
     inkscape:connector-curvature="0"
     style="fill:#aaa5ac;fill-rule:evenodd;fill-opacity:1"
     sodipodi:nodetypes="cssczccccccc" /><path
     clip-rule="evenodd"
     d="m 114.36223,173.03944 c 0,10.0574 -0.11092,55.87657 -0.14606,65.93397 -0.004,0.95434 -0.15459,1.96613 -0.4959,2.85396 -0.66858,1.74544 -1.92341,1.9621 -3.23646,0.64598 -2.30436,-2.30877 -9.12344,-8.68009 -14.224726,-15.99122 -5.101286,-7.31113 -8.198679,-13.78818 -9.793007,-17.64507 -1.594327,-3.8569 -4.146636,-12.21559 -5.133221,-17.21946 -0.986585,-5.00386 -1.657446,-9.90291 -1.988877,-13.3405 -0.331432,-3.4376 -0.305102,-0.88788 0.153345,-9.96515 0.458448,-9.07728 1.975038,-17.07254 4.145042,-24.11468 2.170005,-7.04214 4.993422,-13.13116 8.065524,-18.39593 3.072102,-5.26477 6.392888,-9.70531 9.55763,-13.45049 3.16474,-3.74518 6.17343,-6.79501 8.62135,-9.27837 0.6475,-0.65605 1.25684,-1.54691 2.35808,-1.12969 1.05104,0.39907 1.46664,1.3514 1.61521,2.40652 0.0944,0.65403 0.16765,1.32016 0.16865,1.98023 0.01,10.09872 0.0421,56.51642 0.0421,66.61615 l 0.29129,0.0937 z"
     id="path23"
     inkscape:connector-curvature="0"
     style="fill:#aaa5ac;fill-rule:evenodd;fill-opacity:1"
     sodipodi:nodetypes="cccczzszzsssccccccc" /><path
     style="fill:none;stroke:#6d7a8e;stroke-width:29.99999913;stroke-miterlimit:4;stroke-opacity:1;stroke-dasharray:none"
     d="m 33.252637,201.13185 c 5.06065,-10.04498 23.71616,-22.53271 54.76704,-35.08228 62.101763,-25.09914 150.268303,-40.9411 196.925493,-35.38399 23.3286,2.77855 31.86283,10.38078 26.80218,20.42576"
     id="path4493"
     inkscape:connector-curvature="0" /></svg>