<?xml version="1.0" encoding="UTF-8" standalone="no"?>
<!-- Generator: Adobe Illustrator 15.0.2, SVG Export Plug-In . SVG Version: 6.00 Build 0)  -->

<svg
   xmlns:dc="http://purl.org/dc/elements/1.1/"
   xmlns:cc="http://creativecommons.org/ns#"
   xmlns:rdf="http://www.w3.org/1999/02/22-rdf-syntax-ns#"
   xmlns:svg="http://www.w3.org/2000/svg"
   xmlns="http://www.w3.org/2000/svg"
   xmlns:sodipodi="http://sodipodi.sourceforge.net/DTD/sodipodi-0.dtd"
   xmlns:inkscape="http://www.inkscape.org/namespaces/inkscape"
   version="1.1"
   id="Ebene_1"
   x="0px"
   y="0px"
   width="256"
   height="256"
   viewBox="0 0 255.99999 255.99998"
   enable-background="new 0 0 841.89 595.275"
   xml:space="preserve"
   inkscape:version="0.48.4 r9939"
   sodipodi:docname="icon-work.svg"
   inkscape:export-filename="icon.png"
   inkscape:export-xdpi="90"
   inkscape:export-ydpi="90"><metadata
     id="metadata35"><rdf:RDF><cc:Work
         rdf:about=""><dc:format>image/svg+xml</dc:format><dc:type
           rdf:resource="http://purl.org/dc/dcmitype/StillImage" /><dc:title></dc:title></cc:Work></rdf:RDF></metadata><defs
     id="defs33" /><sodipodi:namedview
     pagecolor="#000000"
     bordercolor="#808080"
     borderopacity="1"
     objecttolerance="10"
     gridtolerance="10"
     guidetolerance="10"
     inkscape:pageopacity="1"
     inkscape:pageshadow="2"
     inkscape:window-width="1855"
     inkscape:window-height="1056"
     id="namedview31"
     showgrid="false"
     fit-margin-top="25"
     fit-margin-left="25"
     fit-margin-right="25"
     fit-margin-bottom="25"
     inkscape:zoom="2.0000001"
     inkscape:cx="151.45906"
     inkscape:cy="59.688652"
     inkscape:window-x="65"
     inkscape:window-y="24"
     inkscape:window-maximized="1"
     inkscape:current-layer="Ebene_1"
     inkscape:snap-page="true"
     inkscape:snap-global="false"
     showborder="true" /><path
     inkscape:connector-curvature="0"
     style="fill:#6d7a8e;fill-opacity:1;stroke:#6d7a8e;stroke-width:11.08026791;stroke-miterlimit:0;stroke-opacity:1;stroke-dasharray:none"
     d="m 183.04587,96.868444 c -18.01517,-0.0898 -40.25895,2.14381 -63.71208,6.856996 -53.607148,10.77299 -93.189206,30.37916 -88.401256,43.78081 4.78795,13.40165 52.126512,15.5309 105.733666,4.75792 53.60714,-10.773 93.1892,-30.35918 88.40126,-43.76082 -2.69323,-7.53844 -18.85923,-11.519396 -42.02159,-11.634906 z m -16.45279,9.295916 c 16.24261,0.081 27.57847,2.87011 29.46709,8.15643 3.35755,9.39791 -24.40083,23.13199 -61.99284,30.68656 -37.592003,7.55456 -70.78995,6.05937 -74.1475,-3.33854 -3.357549,-9.39792 24.400818,-23.13199 61.99283,-30.68655 16.44651,-3.30513 32.04728,-4.88089 44.68042,-4.8179 z"
     id="path3815" /><path
     sodipodi:type="arc"
     style="fill:#ffffff;fill-opacity:1;stroke:none"
     id="path4495"
     sodipodi:cx="94.25"
     sodipodi:cy="94.627121"
     sodipodi:rx="93.75"
     sodipodi:ry="93.75"
     d="m 188,94.627121 a 93.75,93.75 0 1 1 -187.5,0 93.75,93.75 0 1 1 187.5,0 z"
     transform="matrix(0.63460187,0,0,0.63460187,68.188768,67.949404)" /><path
     clip-rule="evenodd"
     d="m 178.17545,160.84849 c -2.18538,2.19514 -4.52103,2.18934 -6.7154,-0.0155 -6.26007,-6.28886 -22.86691,-22.97313 -29.12377,-29.26328 -2.13207,-2.14227 -2.13079,-4.48247 0.006,-6.62926 6.29283,-6.32754 23.18248,-23.29327 29.47789,-29.616296 2.04794,-2.05783 4.45487,-2.05911 6.50281,-0.003 6.45677,11.040616 9.5719,19.443256 9.65198,32.115086 0.0801,12.67184 -4.13113,26.16408 -9.79991,33.4118 z"
     id="path17"
     inkscape:connector-curvature="0"
     style="fill:#aaa5ac;fill-opacity:1;fill-rule:evenodd"
     sodipodi:nodetypes="cccccczc" /><path
     clip-rule="evenodd"
     d="m 121.67273,187.52949 c -5.0594,-0.51153 -19.67181,-3.17544 -25.736673,-9.2709 -2.16995,-2.1816 -2.17188,-4.50825 -0.007,-6.6847 6.276133,-6.30562 23.211353,-23.32755 29.490053,-29.63253 2.08711,-2.09586 4.47864,-2.10424 6.5542,-0.0186 6.27741,6.30434 22.85902,22.96941 29.13451,29.27696 2.15584,2.16743 2.16161,4.54179 0.0154,6.69759 -6.1175,6.14898 -22.50012,9.52172 -27.1821,9.67456 -4.9977,0.4778 -9.67353,0.21232 -12.26835,-0.0423 z"
     id="path19"
     inkscape:connector-curvature="0"
     style="fill:#aaa5ac;fill-opacity:1;fill-rule:evenodd"
     sodipodi:nodetypes="cccsccccc" /><path
     clip-rule="evenodd"
     d="m 105.80654,113.15248 c 0,-7.0122 -0.15219,-29.028536 -0.25479,-36.038816 -0.0297,-2.02879 0.29661,-3.81918 1.99722,-4.95243 2.15889,-1.43864 10.18447,-3.39122 17.0882,-3.83688 3.08178,-0.1942 5.13578,-0.32688 10.8625,0.30087 5.72673,0.62775 18.8327,3.62702 25.09278,9.91523 2.1507,2.16162 2.14877,4.53662 -9e-4,6.69759 -7.40253,7.44156 -24.8855,25.008866 -32.28995,32.447836 -6.5388,6.57188 -13.07629,13.14247 -19.61573,19.71176 -1.21182,1.21781 -2.28555,0.93351 -2.72545,-0.75363 -0.13551,-0.52218 -0.14707,-1.08628 -0.14707,-1.63233 -0.009,-7.28553 -0.006,-14.57301 -0.006,-21.85919"
     id="path21"
     inkscape:connector-curvature="0"
     style="fill:#aaa5ac;fill-opacity:1;fill-rule:evenodd"
     sodipodi:nodetypes="cssczccccccc" /><path
     clip-rule="evenodd"
     d="m 90.835787,128.34504 c 0,6.43392 -0.071,35.74534 -0.0934,42.17925 -0.003,0.61052 -0.0989,1.25778 -0.31724,1.82574 -0.42771,1.11659 -1.23045,1.25519 -2.07043,0.41325 -1.474135,-1.47697 -5.836439,-5.55283 -9.099827,-10.2299 -3.263397,-4.67707 -5.244858,-8.82057 -6.264782,-11.2879 -1.019923,-2.46733 -2.652685,-7.81455 -3.283823,-11.01563 -0.631137,-3.20106 -1.0603,-6.33508 -1.272323,-8.53418 -0.212024,-2.1991 -0.19518,-0.568 0.0981,-6.3749 0.293278,-5.80691 1.263472,-10.92164 2.651665,-15.42663 1.388195,-4.505 3.194388,-8.40026 5.159672,-11.768246 1.965285,-3.36797 4.089662,-6.20867 6.114205,-8.60453 2.024543,-2.39586 3.949261,-4.34691 5.515243,-5.93556 0.41422,-0.41969 0.80402,-0.98958 1.50851,-0.72269 0.67237,0.2553 0.93824,0.86453 1.03328,1.5395 0.0604,0.4184 0.10725,0.84454 0.10789,1.2668 0.006,6.46034 0.0269,36.154656 0.0269,42.615646 l 0.18634,0.0599 z"
     id="path23"
     inkscape:connector-curvature="0"
     style="fill:#aaa5ac;fill-opacity:1;fill-rule:evenodd"
     sodipodi:nodetypes="cccczzszzsssccccccc" /><path
     inkscape:connector-curvature="0"
     style="fill:#6d7a8e;fill-opacity:1;stroke:#6d7a8e;stroke-width:11.08026791;stroke-miterlimit:0;stroke-opacity:1;stroke-dasharray:none"
     d="m 225.06746,108.50335 -29.00729,5.81744 c 3.35755,9.39791 -24.40083,23.13199 -61.99284,30.68656 -37.569143,7.54996 -70.75572,6.06403 -74.1475,-3.31856 l -28.987296,5.81746 c 4.78795,13.40165 52.126512,15.5309 105.733666,4.75792 53.60714,-10.773 93.1892,-30.35918 88.40126,-43.76082 z"
     id="path3815-0" /></svg>